<svg width="356px" height="254px" viewBox="737 434 356 254" version="1.1" xmlns="http://www.w3.org/2000/svg" xmlns:xlink="http://www.w3.org/1999/xlink">
    <defs></defs>
    <g id="Page-1" stroke="none" stroke-width="1" fill="none" fill-rule="evenodd" transform="translate(737.000000, 434.000000)">
        <g id="Group-45" transform="translate(0.000000, 28.619000)" fill="#D9DADB">
            <path d="M96.234,40.5767 C94.029,40.0047 91.813,39.4357 89.59,38.8817 C89.055,39.1707 88.508,39.4637 87.973,39.7527 C86.206,40.7187 84.439,41.6847 82.689,42.6557 C79.701,42.9457 76.726,43.2477 73.754,43.5657 C73.236,44.7377 72.713,45.9007 72.199,47.0667 C73.698,47.8427 75.189,48.6157 76.674,49.4027 C74.632,50.4057 72.593,51.4237 70.574,52.4397 C69.079,53.1487 67.585,53.8587 66.095,54.5767 C66.789,55.7927 67.47,57.0127 68.143,58.2307 C70.796,58.0667 73.455,57.9107 76.118,57.7637 C78.202,57.7567 80.29,57.7597 82.376,57.7687 C84.355,56.8167 86.349,55.8767 88.359,54.9407 C90.004,55.0157 91.657,55.0927 93.307,55.1767 C94.705,53.3427 96.111,51.5117 97.526,49.6827 C97.46,48.6567 97.391,47.6387 97.325,46.6127 L97.37,46.6177 L97.329,46.5837 C97.317,46.4447 97.303,46.3117 97.3,46.1747 C98.988,46.1557 100.676,46.1367 102.367,46.1337 C101.848,44.8297 101.326,43.5327 100.796,42.2337 C99.282,41.6727 97.762,41.1257 96.234,40.5767" id="Fill-1"></path>
            <path d="M56.5849,1.2745 C48.8619,2.2445 41.1719,3.3065 33.5409,4.4685 C29.8299,3.3005 26.0949,2.1625 22.3379,1.0495 C20.8289,1.7085 19.3159,2.3755 17.7999,3.0485 C15.9039,2.0395 13.9929,1.0425 12.0699,0.0495 C8.1409,1.4165 4.2399,2.8055 0.3659,4.2185 C2.1819,5.9535 3.9769,7.6905 5.7609,9.4325 C9.3899,10.4715 12.9999,11.5295 16.5899,12.6105 C20.5279,13.5175 24.4459,14.4485 28.3469,15.4135 C36.7099,14.2365 45.1309,13.1825 53.5959,12.2385 C58.6739,10.8615 63.7999,9.5265 68.9599,8.2395 C64.8849,5.8865 60.7649,3.5665 56.5849,1.2745" id="Fill-3"></path>
            <path d="M128.3237,24.3756 C126.4997,24.6446 124.6767,24.9126 122.8607,25.1836 L120.4037,26.8346 C118.6037,26.1716 116.7977,25.5216 114.9917,24.8716 C112.5147,25.4566 110.0517,26.0536 107.6027,26.6616 C108.3777,27.8026 109.1587,28.9526 109.9227,30.0976 C109.3687,31.5546 108.8137,33.0116 108.2507,34.4666 C109.0677,35.4976 109.8767,36.5266 110.6767,37.5536 C110.7577,38.8556 110.8327,40.1486 110.9077,41.4406 C111.2937,41.9656 111.6817,42.4836 112.0677,43.0076 C112.1097,43.9806 112.1617,44.9566 112.2037,45.9296 C113.8097,45.9036 115.4157,45.8766 117.0217,45.8496 C117.2367,47.6206 117.4407,49.3956 117.6357,51.1686 C117.0147,51.9486 116.3887,52.7196 115.7677,53.4996 C112.8387,53.3756 109.9157,53.2596 106.9827,53.1646 C107.0037,54.6546 107.0087,56.1396 107.0187,57.6336 C105.0247,58.0436 103.0347,58.4636 101.0547,58.8846 C102.7667,59.9396 104.4877,60.9976 106.1857,62.0636 C108.4977,62.4466 110.7957,62.8406 113.1067,63.2456 C111.8267,63.6596 110.5547,64.0756 109.2877,64.4996 C106.2277,64.9446 103.1697,65.4046 100.1307,65.8856 C97.9587,66.3296 95.7917,66.7816 93.6327,67.2366 C94.2547,67.9106 94.8787,68.5776 95.4917,69.2486 C97.9707,69.0276 100.4547,68.8156 102.9497,68.6216 C105.6287,68.4636 108.3207,68.3166 111.0067,68.1836 C113.9617,68.3536 116.9197,68.5386 119.8707,68.7376 C122.6207,69.3496 125.3557,69.9716 128.0927,70.6096 C131.7727,70.3086 135.4577,70.0396 139.1617,69.7906 C138.1927,68.5726 137.2037,67.3566 136.2117,66.1476 C138.5157,65.9536 140.8227,65.7746 143.1227,65.6086 C143.9267,64.6606 144.7227,63.7106 145.5267,62.7626 C142.4487,61.0746 139.3527,59.4046 136.2187,57.7546 C136.0657,55.3796 135.9067,52.9966 135.7247,50.6216 C134.5187,49.3596 133.3097,48.1046 132.0797,46.8516 C130.5377,44.8986 128.9757,42.9466 127.3937,40.9966 C126.4727,40.1476 125.5397,39.3036 124.6067,38.4596 C126.7477,37.3866 128.9077,36.3336 131.0767,35.2836 C130.7117,33.9776 130.3497,32.6646 129.9757,31.3566 C128.0607,31.0246 126.1527,30.6946 124.2397,30.3776 C123.7807,29.8256 123.3227,29.2726 122.8697,28.7296 C124.5827,28.0436 126.3087,27.3686 128.0407,26.7036 C128.1347,25.9276 128.2297,25.1516 128.3237,24.3756" id="Fill-5"></path>
            <path d="M170.075,123.4806 C168.266,124.3736 166.462,125.2766 164.666,126.1816 C164.46,127.8116 164.242,129.4466 164.025,131.0816 C165.263,131.4136 166.507,131.7546 167.751,132.0956 C168.745,130.5346 169.748,128.9756 170.742,127.4146 C170.531,126.1066 170.303,124.7936 170.075,123.4806" id="Fill-7"></path>
            <path d="M165.9953,133.5488 C163.5693,133.7168 161.1493,133.8938 158.7343,134.0808 C158.3283,136.0178 157.9213,137.9558 157.5063,139.8908 C156.8743,141.2878 156.2343,142.6828 155.6023,144.0808 C157.6023,144.0278 159.5953,143.9888 161.5973,143.9518 C162.8703,142.5518 164.1533,141.1478 165.4343,139.7508 C165.6323,137.6868 165.8223,135.6198 165.9953,133.5488" id="Fill-9"></path>
            <path d="M177.6509,153.5298 C176.7629,154.7798 175.8839,156.0328 175.0049,157.2848 C176.9939,158.6678 178.9599,160.0588 180.9119,161.4608 C182.0259,163.0228 183.1119,164.5838 184.1949,166.1508 C185.6159,166.0498 187.0339,165.9548 188.4609,165.8628 C189.5869,164.4298 190.7159,162.9898 191.8529,161.5518 C191.5639,160.5328 191.2759,159.5128 190.9759,158.4978 C189.0079,157.8478 187.0359,157.2048 185.0589,156.5748 C182.5999,155.5448 180.1339,154.5288 177.6509,153.5298" id="Fill-11"></path>
            <path d="M294.8686,6.6625 C291.0326,7.2155 287.2166,7.7885 283.4126,8.3955 C279.5356,8.1345 275.6756,7.9005 271.8106,7.6955 C266.1626,7.6115 260.5436,7.5885 254.9306,7.6135 C249.3856,10.8735 243.8946,14.1805 238.4906,17.5255 C231.5246,17.7315 224.6066,18.0185 217.7196,18.3815 C208.5816,18.5995 199.5006,18.9615 190.4796,19.4615 C188.5246,21.6925 186.5806,23.9405 184.6556,26.1875 C184.8406,29.8045 185.0086,33.4175 185.1406,37.0275 C188.7866,39.2375 192.4026,41.4695 195.9696,43.7255 C202.9326,42.9135 209.9456,42.1765 217.0126,41.5305 C218.6606,43.1725 220.2866,44.8245 221.8956,46.4715 C221.7316,48.4625 221.5536,50.4405 221.3726,52.4265 C222.5176,54.9885 223.6246,57.5465 224.7096,60.1145 C223.7416,62.1515 222.7726,64.1895 221.8016,66.2335 C225.0056,66.3815 228.2116,66.5465 231.4276,66.7285 C235.4636,67.0565 239.4956,67.4145 243.5406,67.8065 C246.0136,66.6145 248.4926,65.4315 250.9926,64.2625 C252.4766,62.2255 253.9596,60.1885 255.4396,58.1575 C260.3056,57.9545 265.1866,57.8005 270.0936,57.6925 C267.9556,54.2545 265.7646,50.8245 263.5146,47.4005 C265.2416,45.3935 266.9716,43.3805 268.7066,41.3755 C272.5956,40.9745 276.4956,40.5915 280.4116,40.2345 C285.1646,40.0905 289.9466,39.9845 294.7386,39.9195 C296.5196,38.6775 298.3086,37.4375 300.1036,36.2075 C304.6986,37.3205 309.2956,38.4725 313.8826,39.6675 C315.9356,41.3025 317.9686,42.9395 319.9956,44.5905 C318.3656,45.1405 316.7486,45.7015 315.1296,46.2695 C309.1806,46.5855 303.2576,46.9695 297.3656,47.4085 C294.5526,47.6495 291.7426,47.9065 288.9376,48.1725 C288.8266,51.4425 288.6936,54.6985 288.5316,57.9535 C290.4956,60.2295 292.4286,62.5125 294.3386,64.8045 C297.1996,66.2195 300.0556,67.6475 302.8936,69.0945 C305.8786,69.8935 308.8606,70.7105 311.8386,71.5455 C314.9626,72.4205 318.0816,73.3155 321.1966,74.2305 C323.3416,74.7485 325.4826,75.2725 327.6176,75.8105 C333.7976,73.3185 340.0556,70.8855 346.3696,68.5145 C345.8256,65.5455 345.2606,62.5785 344.6596,59.6095 C345.9046,58.4515 347.1466,57.3015 348.3976,56.1525 C347.5396,53.9595 346.6646,51.7605 345.7666,49.5715 C347.0596,48.3135 348.3486,47.0625 349.6406,45.8045 C348.3776,43.7625 347.0866,41.7195 345.7846,39.6815 C346.4906,38.6985 347.1966,37.7155 347.9026,36.7325 C350.4336,36.6245 352.9676,36.5325 355.5066,36.4485 C355.2416,34.5805 354.9646,32.7165 354.6796,30.8495 C350.5726,27.8065 346.4126,24.7935 342.1976,21.8185 C336.9776,20.1205 331.7436,18.4725 326.4956,16.8725 C321.5616,16.1795 316.6316,15.5165 311.7076,14.9015 C306.1456,12.0935 300.5356,9.3485 294.8686,6.6625" id="Fill-13"></path>
            <path d="M281.2022,217.454 C278.9912,216.895 276.7852,216.345 274.5822,215.811 C272.8862,215.396 271.2072,214.986 269.5132,214.587 C268.9272,215.271 268.3332,215.952 267.7472,216.636 C268.9822,217.55 270.2132,218.47 271.4332,219.395 C272.7282,219.197 274.0392,219.005 275.3412,218.809 C276.7772,218.924 278.2202,219.041 279.6642,219.158 C280.1772,218.59 280.6892,218.022 281.2022,217.454" id="Fill-15"></path>
            <path d="M275.8513,175.9311 C275.0403,176.2181 274.2283,176.5061 273.4253,176.7961 C273.7113,177.4741 273.9963,178.1521 274.2813,178.8301 C272.9023,178.7991 271.5203,178.7751 270.1443,178.7601 C267.8033,177.6201 265.4443,176.4971 263.0823,175.3811 C261.7703,174.9001 260.4583,174.4181 259.1463,173.9371 C257.7793,174.0241 256.4163,174.1031 255.0553,174.1991 C254.5693,175.0771 254.0923,175.9581 253.6073,176.8361 C254.7563,177.4611 255.9033,178.0931 257.0463,178.7311 C256.2963,179.7471 255.5523,180.7731 254.7983,181.7951 C253.6973,182.0701 252.5963,182.3441 251.5033,182.6211 C251.9833,183.7621 252.4513,184.9081 252.9203,186.0531 C252.6543,187.3411 252.3713,188.6251 252.0883,189.9081 C252.6723,190.8671 253.2473,191.8231 253.8233,192.7791 C254.1343,193.7291 254.4373,194.6771 254.7393,195.6251 C255.9863,196.3071 257.2193,197.0011 258.4513,197.6941 C258.0473,199.1561 257.6263,200.6121 257.2053,202.0691 C258.9973,202.3591 260.7813,202.6471 262.5753,202.9531 C264.1173,202.3481 265.6703,201.7391 267.2253,201.1451 C268.8703,202.7341 270.4983,204.3411 272.1053,205.9491 C273.2183,207.6991 274.3153,209.4601 275.3873,211.2141 C275.9383,211.5281 276.4853,211.8481 277.0363,212.1611 C277.6323,211.9871 278.2403,211.8091 278.8533,211.6401 C280.5713,211.9481 282.2853,212.2621 284.0053,212.5851 C282.8263,213.4351 281.6443,214.2921 280.4663,215.1431 C282.3123,215.3581 284.1523,215.5861 286.0013,215.8161 C286.7273,215.1791 287.4623,214.5451 288.1853,213.9151 C289.2863,214.6851 290.3723,215.4661 291.4623,216.2411 C292.6593,216.4561 293.8603,216.6631 295.0553,216.8851 C296.5293,217.7971 297.9823,218.7121 299.4383,219.6421 C300.9213,221.2541 302.3763,222.8801 303.8213,224.5121 C304.6003,222.3681 305.3713,220.2221 306.1193,218.0621 C307.4293,216.0301 308.7243,213.9851 310.0123,211.9391 C311.1453,211.9841 312.2793,212.0291 313.4093,212.0811 C313.3753,211.5191 313.3333,210.9541 313.2913,210.3901 C312.4653,209.5611 311.6373,208.7381 310.8083,207.9151 C310.7483,207.1641 310.6793,206.4101 310.6103,205.6571 C311.2103,204.6361 311.8093,203.6161 312.4123,202.5891 C312.7983,202.1901 313.1873,201.7841 313.5683,201.3761 C313.0373,199.5461 312.4863,197.7191 311.9143,195.8931 C310.2083,195.4381 308.5083,194.9921 306.8043,194.5521 C305.5043,192.6741 304.1723,190.8021 302.8203,188.9321 C300.7993,187.1241 298.7473,185.3221 296.6773,183.5391 C296.1003,182.9761 295.5223,182.4131 294.9423,181.8561 C293.7613,181.7071 292.5783,181.5651 291.3973,181.4161 C288.8033,181.5971 286.2203,181.7971 283.6503,182.0081 C281.0813,179.9631 278.4753,177.9381 275.8513,175.9311" id="Fill-17"></path>
            <path d="M219.9604,60.8046 C217.9584,60.7806 215.9614,60.7666 213.9724,60.7546 C212.8304,61.1986 211.7084,61.6416 210.5744,62.0886 C210.9154,63.2816 211.2594,64.4676 211.5924,65.6586 C212.3034,66.4256 213.0144,67.1936 213.7174,67.9576 C215.2514,67.3276 216.7914,66.7066 218.3304,66.0856 C218.8714,64.3296 219.4164,62.5676 219.9604,60.8046" id="Fill-19"></path>
            <path d="M127.3555,130.6694 C125.8655,130.6534 124.3685,130.6494 122.8715,130.6464 C122.3005,131.3194 121.7295,131.9924 121.1615,132.6584 C122.5185,133.9844 123.8705,135.3024 125.1965,136.6354 C126.3775,135.3694 127.5735,134.1144 128.7595,132.8574 C128.2975,132.1294 127.8265,131.3994 127.3555,130.6694" id="Fill-21"></path>
            <path d="M228.6519,190.0327 C227.9739,190.6677 227.3049,191.3057 226.6239,191.9477 C227.6959,192.8837 228.7529,193.8307 229.8009,194.7757 C231.1639,195.9067 232.5139,197.0427 233.8619,198.1847 C235.7549,198.7307 237.6449,199.2827 239.5389,199.8437 C239.3239,198.6477 239.1079,197.4517 238.8839,196.2537 C237.5589,195.7997 236.2279,195.3577 234.8979,194.9167 C233.8319,193.9677 232.7519,193.0287 231.6639,192.0877 C230.6589,191.3977 229.6599,190.7167 228.6519,190.0327" id="Fill-23"></path>
            <path d="M221.1364,166.5107 C220.2554,167.1117 219.3944,167.7107 218.5244,168.3077 C218.4204,169.2467 218.3164,170.1867 218.2104,171.1337 C219.3584,171.2887 220.5044,171.4507 221.6594,171.6157 C221.4984,169.9127 221.3174,168.2117 221.1364,166.5107" id="Fill-25"></path>
            <path d="M249.7141,175.0944 C249.0801,175.9844 248.4411,176.8644 247.7981,177.7524 C248.5601,178.5334 249.3051,179.3104 250.0561,180.0954 C250.7161,179.1904 251.3761,178.2854 252.0371,177.3804 C251.2651,176.6194 250.4941,175.8584 249.7141,175.0944" id="Fill-27"></path>
            <path d="M243.0271,168.966 C242.4101,169.861 241.7931,170.755 241.1671,171.647 C241.9441,172.417 242.7211,173.188 243.4941,173.965 C244.1291,173.052 244.7761,172.136 245.4191,171.226 C244.6241,170.473 243.8301,169.721 243.0271,168.966" id="Fill-29"></path>
            <path d="M248.9534,167.8789 C248.3194,168.7689 247.6974,169.6539 247.0714,170.5459 C247.8454,171.3229 248.6244,172.1089 249.3974,172.8859 C250.0494,171.9789 250.7014,171.0709 251.3444,170.1609 C250.5564,169.3949 249.7564,168.6339 248.9534,167.8789" id="Fill-31"></path>
            <path d="M245.2248,199.1509 C244.5598,200.0249 243.9038,200.9009 243.2398,201.7739 C243.9228,202.5409 244.6018,203.3139 245.2818,204.0879 C245.9678,203.1899 246.6528,202.2919 247.3358,201.3999 C246.6378,200.6449 245.9368,199.8959 245.2248,199.1509" id="Fill-33"></path>
            <path d="M251.654,195.1614 C250.93,195.4654 250.209,195.7634 249.486,196.0674 C249.497,197.1684 249.509,198.2694 249.504,199.3664 C250.869,198.9154 252.242,198.4674 253.614,198.0194 C252.97,197.0674 252.318,196.1124 251.654,195.1614" id="Fill-35"></path>
            <path d="M237.394,180.9759 C236.364,180.7709 235.322,180.5689 234.289,180.3709 C233.547,181.1019 232.803,181.8389 232.058,182.5769 C232.949,182.8569 233.825,183.1479 234.713,183.4339 C235.603,182.6089 236.498,181.7919 237.394,180.9759" id="Fill-37"></path>
            <path d="M245.6596,178.1446 C244.8876,178.5106 244.1156,178.8776 243.3556,179.2396 C243.7936,180.2256 244.2306,181.2116 244.6606,182.1946 C245.8896,181.7066 247.1186,181.2186 248.3566,180.7326 C247.4616,179.8686 246.5666,179.0046 245.6596,178.1446" id="Fill-39"></path>
            <path d="M240.375,182.2579 C239.872,182.8059 239.368,183.3539 238.865,183.9019 C239.591,184.4529 240.305,185.0089 241.019,185.5649 C242.059,185.0539 243.107,184.5449 244.155,184.0359 C242.896,183.4419 241.637,182.8459 240.375,182.2579" id="Fill-41"></path>
            <path d="M301.6042,71.7381 C299.4902,71.3801 297.3732,71.0291 295.2532,70.6851 C294.7082,71.6911 294.1722,72.6981 293.6242,73.7111 C295.3392,74.9861 297.0482,76.2751 298.7452,77.5681 C298.0692,78.0981 297.3922,78.6281 296.7162,79.1571 C296.3152,80.2031 295.9082,81.2401 295.4992,82.2831 C293.8002,82.1401 292.1102,82.0001 290.4192,81.8591 C289.3982,80.3841 288.3662,78.9141 287.3252,77.4421 C285.5612,76.5161 283.7892,75.5881 282.0202,74.6761 C280.1342,75.2221 278.2562,75.7711 276.3862,76.3221 C275.5292,77.5881 274.6812,78.8571 273.8322,80.1251 C273.6002,80.0911 273.3802,80.0511 273.1482,80.0171 C272.9642,81.5171 272.7692,83.0221 272.5742,84.5271 C271.6682,84.4021 270.7712,84.2791 269.8742,84.1561 C268.0492,84.2431 266.2302,84.3391 264.4162,84.4431 C263.5072,85.0821 262.5962,85.7281 261.6962,86.3691 L261.7442,86.3901 C260.4612,86.0301 259.1752,85.6771 257.8802,85.3221 C257.1802,84.2251 256.4672,83.1321 255.7472,82.0371 C253.1962,81.0191 250.6422,80.0081 248.0732,79.0091 C245.5992,78.9741 243.1302,78.9481 240.6672,78.9311 C236.8692,78.2761 233.0622,77.6411 229.2562,77.0431 C228.3002,77.8661 227.3452,78.6881 226.3942,79.5191 L226.4262,79.3091 C224.4072,76.6991 222.3482,74.0931 220.2542,71.5001 C216.8892,71.2691 213.5312,71.0621 210.1722,70.8781 C208.8242,69.9631 207.4642,69.0521 206.1002,68.1471 C205.0112,66.7371 203.9112,65.3311 202.7982,63.9291 C202.5402,63.8491 202.2932,63.7651 202.0342,63.6841 C202.9692,62.2731 203.9062,60.8551 204.8432,59.4371 C206.2512,58.8331 207.6552,58.2341 209.0722,57.6321 C208.9662,56.1791 208.8602,54.7271 208.7462,53.2711 C210.2462,51.9361 211.7522,50.6091 213.2692,49.2781 C212.4512,48.6171 211.6242,47.9541 210.8032,47.3001 C209.0902,48.4171 207.3932,49.5391 205.7022,50.6701 C202.8302,50.5691 199.9712,50.4791 197.1142,50.4051 C195.9672,51.9241 194.8332,53.4381 193.7032,54.9611 C194.2682,57.1481 194.8222,59.3391 195.3672,61.5281 C196.8412,62.0101 198.3242,62.4931 199.7982,62.9751 C197.8012,62.3471 195.7922,61.7231 193.7712,61.1041 C193.7962,61.1941 193.8092,61.2891 193.8252,61.3761 C194.1302,62.9761 194.4172,64.5701 194.7052,66.1651 C192.7292,66.6181 190.7522,67.0711 188.7902,67.5361 C186.3282,66.9211 183.8712,66.3161 181.4052,65.7311 C179.6672,65.3651 177.9182,65.0041 176.1772,64.6441 C172.6422,64.7361 169.1172,64.8461 165.6002,64.9811 C163.3702,66.4301 161.1642,67.8871 158.9652,69.3521 C157.4172,69.5391 155.8792,69.7291 154.3372,69.9251 C151.2802,70.4231 148.2462,70.9361 145.2102,71.4701 C141.5532,73.9961 137.9402,76.5491 134.3662,79.1201 C130.2442,78.2611 126.1112,77.4431 121.9662,76.6521 C120.0252,75.6771 118.0782,74.7151 116.1112,73.7551 C113.0692,74.8781 110.0492,76.0161 107.0512,77.1661 C104.1242,77.1411 101.2042,77.1401 98.2812,77.1461 C98.0432,78.7231 97.7972,80.2961 97.5502,81.8701 C100.2792,82.7101 103.0052,83.5571 105.7132,84.4221 C107.7592,86.2371 109.7762,88.0511 111.7702,89.8741 C112.1862,92.2391 112.5902,94.6081 112.9682,96.9701 C110.1642,100.6961 107.3932,104.4321 104.6652,108.1791 C97.6032,106.7451 90.5042,105.4141 83.3582,104.1841 C79.2152,103.2041 75.0482,102.2561 70.8622,101.3481 C68.3442,101.4071 65.8312,101.4751 63.3122,101.5571 C61.5822,102.4041 59.8652,103.2631 58.1452,104.1281 C58.3542,106.3221 58.5432,108.5171 58.7212,110.7171 C57.9892,113.5781 57.2572,116.4381 56.5262,119.2991 C54.9492,122.0071 53.4022,124.7151 51.8682,127.4341 C51.5562,130.8891 51.2352,134.3421 50.9032,137.8001 C54.0952,137.6871 57.2862,137.5971 60.4762,137.5301 C61.4672,137.4901 62.4512,137.4471 63.4432,137.4071 C64.2402,138.9941 65.0262,140.5841 65.8002,142.1791 C66.8282,143.2091 67.8482,144.2361 68.8642,145.2701 C71.4862,144.2721 74.1382,143.2891 76.8042,142.3181 C81.7082,142.9351 86.5982,143.6011 91.4742,144.3171 C94.3142,142.7281 97.1842,141.1551 100.0732,139.6031 C102.4262,138.0741 104.7932,136.5581 107.1832,135.0541 C108.2032,132.5161 109.2342,129.9741 110.2742,127.4351 C114.7782,126.0021 119.3252,124.6191 123.9212,123.2721 C126.9812,121.8661 130.0772,120.4861 133.1942,119.1181 C133.0522,119.0561 132.9062,119.0001 132.7552,118.9351 C133.2122,117.4431 133.6572,115.9551 134.1132,114.4631 C136.5612,114.1651 139.0152,113.8761 141.4702,113.6031 C144.7892,114.9791 148.0812,116.3711 151.3442,117.7851 C154.5652,117.5291 157.7962,117.2911 161.0342,117.0791 C164.2332,116.4381 167.4512,115.8191 170.6892,115.2191 C173.4162,117.4141 176.0972,119.6271 178.7442,121.8521 C178.2112,123.8151 177.6782,125.7781 177.1462,127.7411 C179.8422,130.7601 182.4812,133.8011 185.0602,136.8471 C187.9172,139.1321 190.7402,141.4291 193.5142,143.7511 C195.0652,146.0931 196.5892,148.4351 198.0692,150.7881 C198.2862,152.6581 198.4822,154.5301 198.6652,156.3911 C197.0892,157.5621 195.5252,158.7281 193.9662,159.9041 C194.7382,160.7031 195.5082,161.5091 196.2692,162.3131 C199.0262,161.0041 201.8022,159.7151 204.6032,158.4331 C204.6682,156.6951 204.7172,154.9531 204.7652,153.2101 C205.6622,152.8631 206.5672,152.5181 207.4802,152.1761 C208.8472,153.8091 210.2032,155.4451 211.5362,157.0901 C212.7452,155.9911 213.9592,154.9001 215.1732,153.8101 C211.8092,150.7701 208.3692,147.7471 204.8662,144.7601 C204.5282,143.7871 204.1862,142.8201 203.8392,141.8451 C201.7892,139.2191 199.6882,136.6011 197.5432,133.9941 C196.5942,132.2441 195.6202,130.5031 194.6392,128.7591 C194.6372,127.2681 194.6322,125.7821 194.6222,124.2881 C194.2112,123.1431 193.7832,121.9941 193.3552,120.8441 C194.0682,119.3331 194.7812,117.8221 195.4982,116.3051 C197.3072,116.5391 199.1242,116.7761 200.9382,117.0191 C201.3372,117.2071 201.7332,117.4011 202.1332,117.5891 C202.2232,118.0301 202.3072,118.4631 202.3982,118.9051 C202.2192,119.3691 202.0382,119.8411 201.8512,120.3031 C202.0192,120.8651 202.1782,121.4241 202.3372,121.9841 C203.1542,122.1141 203.9772,122.2541 204.7962,122.4001 C205.3642,123.5971 205.9302,124.8001 206.4782,125.9981 C207.7262,126.5981 208.9622,127.2011 210.1892,127.8031 C210.8222,129.3731 211.4352,130.9451 212.0402,132.5151 C213.2502,133.3991 214.4402,134.2851 215.6272,135.1781 C216.5922,136.1601 217.5392,137.1371 218.4922,138.1241 C219.4792,140.0201 220.4492,141.9121 221.3992,143.8061 C222.4462,145.3251 223.4912,146.8521 224.5182,148.3741 C224.6402,149.0141 224.7712,149.6561 224.8892,150.3021 C223.6472,152.1501 222.3932,154.0011 221.1512,155.8481 C221.5912,157.1151 222.0232,158.3791 222.4472,159.6411 C222.4912,160.3871 222.5262,161.1321 222.5692,161.8781 L222.8432,161.7811 C223.2722,162.9301 223.7002,164.0801 224.1172,165.2341 C223.8402,166.3601 223.5552,167.4841 223.2702,168.6071 C223.8142,169.2221 224.3472,169.8401 224.8792,170.4591 C224.8792,170.4591 226.6862,171.0761 227.4202,171.2811 C227.5012,171.3041 227.5692,171.3221 227.6212,171.3331 C227.6242,171.3341 227.6272,171.3341 227.6292,171.3351 C228.0552,171.4541 223.2672,172.9971 223.2722,173.0061 C223.5412,174.4971 223.7912,175.9901 224.0402,177.4831 C224.5212,178.3751 224.9942,179.2651 225.4672,180.1551 C226.7342,180.9791 227.9942,181.8171 229.2462,182.6521 C230.0752,180.7491 230.8962,178.8451 231.7202,176.9331 C231.7352,176.0821 231.7612,175.2261 231.7792,174.3681 C233.0952,175.3731 234.4122,176.3781 235.7162,177.3871 C236.5452,177.5131 237.3772,177.6331 238.2142,177.7611 C238.9952,177.0871 239.7742,176.4191 240.5612,175.7541 C239.9162,174.4151 239.2702,173.0761 238.6052,171.7391 C238.3772,170.9181 238.1432,170.0881 237.8982,169.2621 C239.6982,167.9801 241.5032,166.7071 243.3162,165.4361 C244.7222,165.7771 246.1202,166.1161 247.5232,166.4641 C248.8192,166.5691 250.1172,166.6911 251.4102,166.8031 C253.2752,167.6141 255.1342,168.4371 256.9932,169.2611 L257.1782,169.3961 C258.0102,170.1291 258.8422,170.8621 259.6662,171.5921 C259.0852,172.1641 258.5042,172.7351 257.9312,173.3091 C259.2952,173.2071 260.6682,173.1071 262.0382,173.0141 C263.6952,173.1451 265.3452,173.2901 267.0032,173.4371 C268.1722,174.2861 269.3332,175.1341 270.4822,175.9861 C271.7202,175.7051 272.9492,175.4211 274.1842,175.1461 C273.1442,174.5521 272.0932,173.9621 271.0412,173.3721 C270.8602,172.5111 270.6762,171.6571 270.4922,170.8031 C270.6332,168.7381 270.7632,166.6781 270.8842,164.6151 C272.1092,163.8911 273.3392,163.1761 274.5692,162.4601 C275.8062,162.5501 277.0432,162.6391 278.2802,162.7281 C278.8812,162.1551 279.4772,161.5721 280.0702,160.9971 C281.3092,159.7921 282.5562,158.5891 283.7912,157.3911 C285.3652,157.5981 286.9362,157.8111 288.5122,158.0331 C289.4142,157.0591 290.3212,156.0951 291.2202,155.1281 C291.6122,155.0641 292.0102,155.0091 292.4032,154.9441 C294.0652,154.7361 295.7402,154.5401 297.4132,154.3501 C298.7932,153.8441 300.1942,153.3351 301.5812,152.8381 C303.0442,153.6491 304.5052,154.4671 305.9542,155.2901 C306.5002,156.6771 307.0272,158.0661 307.5452,159.4531 C309.7702,160.7201 311.9832,161.9911 314.1872,163.2821 C313.8882,163.7591 313.5982,164.2381 313.3002,164.7141 C311.4522,164.3181 309.5982,163.9341 307.7502,163.5601 C308.6302,165.0711 309.5072,166.5891 310.3722,168.1101 C309.4792,168.7991 308.6032,169.4921 307.7212,170.1761 C308.8152,171.0651 309.9112,171.9481 310.9932,172.8421 C312.9092,173.1741 314.8302,173.5161 316.7482,173.8641 C318.8582,174.6601 320.9622,175.4691 323.0682,176.2941 C324.2462,176.1621 325.4352,176.0261 326.6212,175.8961 C324.4262,174.0551 322.2072,172.2221 319.9712,170.4071 C319.1902,168.8251 318.3902,167.2461 317.5812,165.6641 C318.8132,165.6611 320.0452,165.6581 321.2862,165.6581 C323.2892,166.2341 325.2882,166.8171 327.2932,167.4091 C329.9662,168.5521 332.6312,169.7151 335.2892,170.8911 C337.2662,171.4001 339.2392,171.9151 341.2192,172.4391 C344.7342,172.4101 348.2662,172.4081 351.8052,172.4311 C353.1402,169.9131 354.4582,167.3911 355.7622,164.8571 C350.1352,159.0561 344.3162,153.3371 338.3062,147.7021 C337.5072,143.5791 336.6372,139.4441 335.7052,135.3001 C331.8322,133.0261 327.9172,130.7781 323.9862,128.5641 C323.9642,126.8091 323.9342,125.0521 323.8952,123.2921 C326.1542,123.2361 328.4262,123.1921 330.7042,123.1561 C329.4352,119.1821 328.0932,115.2021 326.6852,111.2201 C326.2812,109.1161 325.8612,107.0071 325.4242,104.8931 C321.8432,102.5421 318.2222,100.2181 314.5712,97.9161 C314.7542,94.6361 314.9082,91.3561 315.0232,88.0571 C317.1032,85.9071 319.1942,83.7531 321.2822,81.6051 C318.4702,79.7351 315.6322,77.8801 312.7762,76.0421 C309.0692,74.5791 305.3452,73.1501 301.6042,71.7381 M307.7492,85.5651 C307.6252,85.5221 307.4932,85.4781 307.3702,85.4361 C306.0732,84.0201 304.7572,82.6061 303.4372,81.1991 C304.8802,82.6491 306.3202,84.1041 307.7492,85.5651 M287.8032,84.7521 C285.3052,83.5601 282.7922,82.3791 280.2702,81.2181 C282.5752,82.2501 284.8802,83.3041 287.1642,84.3611 C287.3812,84.4901 287.5982,84.6191 287.8032,84.7521 M292.6282,88.0351 C291.0402,86.9381 289.4372,85.8531 287.8252,84.7661 C289.4792,85.7821 291.1342,86.7981 292.7742,87.8251 C293.7972,87.8621 294.8312,87.8951 295.8622,87.9341 C294.7802,87.9641 293.7032,88.0031 292.6282,88.0351 M305.4662,95.9541 C305.2722,95.8781 305.0822,95.7941 304.8892,95.7171 C304.1632,95.3931 303.4242,95.0721 302.6952,94.7541 C302.3872,93.9181 302.0722,93.0811 301.7532,92.2491 C302.1682,93.1001 302.5712,93.9551 302.9742,94.8101 C303.8102,95.1881 304.6332,95.5701 305.4662,95.9541 M270.3732,89.9061 C268.7262,89.1191 267.0682,88.3361 265.4152,87.5621 C266.0222,87.7551 266.6262,87.9541 267.2322,88.1471 C268.2782,88.7281 269.3222,89.3161 270.3732,89.9061" id="Fill-43"></path>
        </g>
        <path d="M201.557,69.763 C201.557,54.914 189.522,42.881 174.675,42.881 C159.832,42.881 147.796,54.914 147.796,69.763 C147.796,71.022 147.9,72.255 148.069,73.472 L148.013,73.451 C152.233,100.705 174.52,125.447 174.674,125.617 L174.675,125.626 L174.677,125.621 L174.682,125.626 L174.682,125.617 C174.814,125.471 197.121,100.717 201.343,73.451 L201.294,73.459 C201.462,72.25 201.557,71.016 201.557,69.763" id="Fill-46" fill="#004A99"></path>
        <path d="M150.4047,116.2023 C141.4627,114.7663 130.1467,115.5703 125.1297,118.0033 C120.1167,120.4343 123.3047,123.5703 132.2457,125.0063 C133.0077,125.1293 133.7887,125.2313 134.5757,125.3213 L134.5457,125.3303 C152.3957,127.2773 174.8347,126.0203 174.9887,126.0113 C174.9517,125.9743 167.5697,119.9253 152.5637,116.5943 L152.5467,116.6033 C151.8737,116.4583 151.1667,116.3243 150.4047,116.2023" id="Fill-48" fill="#B1B3B4"></path>
        <g id="Group-56" transform="translate(51.000000, 50.619000)">
            <path d="M142.0433,19.0102 C142.0433,29.1552 133.8213,37.3772 123.6733,37.3772 C113.5333,37.3772 105.3113,29.1552 105.3113,19.0102 C105.3113,8.8652 113.5333,0.6422 123.6733,0.6422 C133.8213,0.6422 142.0433,8.8652 142.0433,19.0102" id="Fill-50" fill="#FFFFFF"></path>
            <path d="M134.639,19.0102 C134.639,25.0672 129.733,29.9732 123.675,29.9732 C117.622,29.9732 112.713,25.0672 112.713,19.0102 C112.713,12.9552 117.622,8.0462 123.675,8.0462 C129.733,8.0462 134.639,12.9552 134.639,19.0102" id="Fill-52" fill="#DA0019"></path>
            <path d="M35.9721,68.7797 C35.9721,59.0457 28.0811,51.1567 18.3491,51.1567 C8.6191,51.1567 0.7291,59.0457 0.7291,68.7797 C0.7291,69.6057 0.7941,70.4137 0.9061,71.2117 L0.8711,71.1967 C3.6351,89.0657 18.2481,105.2867 18.3481,105.3967 L18.3491,105.4037 L18.3511,105.3997 L18.3541,105.4037 L18.3541,105.3987 C18.4411,105.3007 33.0651,89.0727 35.8331,71.1967 L35.8011,71.2027 C35.9101,70.4107 35.9721,69.6027 35.9721,68.7797" id="Fill-54" fill="#004A99"></path>
        </g>
        <path d="M53.4441,149.8414 C47.5721,148.8984 40.1551,149.4284 36.8671,151.0224 C33.5801,152.6164 35.6671,154.6704 41.5391,155.6134 C42.0341,155.6934 42.5431,155.7604 43.0571,155.8204 L43.0361,155.8254 C54.7441,157.1014 69.4521,156.2784 69.5501,156.2714 L69.5581,156.2734 L69.5501,156.2714 C69.5261,156.2484 64.6861,152.2804 54.8481,150.0984 L54.8471,150.1034 C54.4031,150.0094 53.9391,149.9204 53.4441,149.8414" id="Fill-57" fill="#B1B3B4"></path>
        <g id="Group-65" transform="translate(57.000000, 0.619000)">
            <path d="M24.391,118.6928 C24.391,125.3428 19.001,130.7338 12.347,130.7338 C5.702,130.7338 0.31,125.3428 0.31,118.6928 C0.31,112.0428 5.702,106.6508 12.347,106.6508 C19.001,106.6508 24.391,112.0428 24.391,118.6928" id="Fill-59" fill="#FFFFFF"></path>
            <path d="M19.5375,118.6928 C19.5375,122.6628 16.3205,125.8788 12.3495,125.8788 C8.3825,125.8788 5.1635,122.6628 5.1635,118.6928 C5.1635,114.7238 8.3825,111.5058 12.3495,111.5058 C16.3205,111.5058 19.5375,114.7238 19.5375,118.6928" id="Fill-61" fill="#DA0019"></path>
            <path d="M214.2924,21.1059 C214.2924,9.7859 205.1154,0.6089 193.7974,0.6089 C182.4814,0.6089 173.3054,9.7859 173.3054,21.1059 C173.3054,22.0639 173.3824,23.0039 173.5124,23.9319 L173.4704,23.9169 C176.6854,44.6959 193.6804,63.5599 193.7964,63.6899 L193.7974,63.6969 L193.8004,63.6919 L193.8024,63.6969 L193.8024,63.6899 C193.9034,63.5779 210.9104,44.7049 214.1294,23.9169 L214.0924,23.9219 C214.2204,23.0009 214.2924,22.0619 214.2924,21.1059" id="Fill-63" fill="#004A99"></path>
        </g>
        <path d="M232.2928,57.1277 C225.4788,56.0337 216.8458,56.6467 213.0208,58.5007 C209.1968,60.3557 211.6328,62.7467 218.4468,63.8407 C219.0278,63.9347 219.6198,64.0127 220.2288,64.0817 L220.1998,64.0857 C233.8048,65.5717 250.9158,64.6127 251.0338,64.6067 L251.0418,64.6077 L251.0338,64.6067 L251.0418,64.6077 L251.0338,64.6067 C251.0068,64.5787 245.3738,59.9677 233.9318,57.4277 L233.9308,57.4337 C233.4128,57.3247 232.8738,57.2207 232.2928,57.1277" id="Fill-66" fill="#B1B3B4"></path>
        <g id="Group-74" transform="translate(230.000000, 7.619000)">
            <path d="M34.8012,14.0034 C34.8012,21.7384 28.5332,28.0064 20.7952,28.0064 C13.0662,28.0064 6.7952,21.7384 6.7952,14.0034 C6.7952,6.2674 13.0662,0.0004 20.7952,0.0004 C28.5332,0.0004 34.8012,6.2674 34.8012,14.0034" id="Fill-68" fill="#FFFFFF"></path>
            <path d="M29.1566,14.0034 C29.1566,18.6204 25.4176,22.3604 20.7976,22.3604 C16.1826,22.3604 12.4396,18.6204 12.4396,14.0034 C12.4396,9.3884 16.1826,5.6444 20.7976,5.6444 C25.4176,5.6444 29.1566,9.3884 29.1566,14.0034" id="Fill-70" fill="#DA0019"></path>
            <path d="M28.5131,141.7319 C28.5131,134.0539 22.2891,127.8309 14.6141,127.8309 C6.9381,127.8309 0.7141,134.0539 0.7141,141.7319 C0.7141,142.3829 0.7671,143.0219 0.8541,143.6499 L0.8261,143.6389 C3.0071,157.7329 14.5331,170.5259 14.6141,170.6149 L14.6141,170.6199 L14.6151,170.6169 L14.6151,170.6199 L14.6151,170.6159 C14.6861,170.5399 26.2201,157.7379 28.4041,143.6389 L28.3781,143.6429 C28.4641,143.0179 28.5131,142.3809 28.5131,141.7319" id="Fill-72" fill="#004A99"></path>
        </g>
        <path d="M232.0645,173.3653 C227.4405,172.6223 221.5845,173.0403 218.9915,174.2963 C216.3995,175.5533 218.0485,177.1763 222.6725,177.9193 C223.0655,177.9823 223.4675,178.0353 223.8755,178.0813 L223.8585,178.0843 C233.0875,179.0923 244.6925,178.4413 244.7735,178.4373 C244.7525,178.4173 240.9385,175.2903 233.1715,173.5683 L233.1745,173.5723 C232.8245,173.4983 232.4575,173.4283 232.0645,173.3653" id="Fill-75" fill="#B1B3B4"></path>
        <g id="Group-81" transform="translate(235.000000, 139.619000)">
            <path d="M19.1107,9.6625 C19.1107,14.9085 14.8597,19.1605 9.6117,19.1605 C4.3697,19.1605 0.1177,14.9085 0.1177,9.6625 C0.1177,4.4175 4.3697,0.1655 9.6117,0.1655 C14.8597,0.1655 19.1107,4.4175 19.1107,9.6625" id="Fill-77" fill="#FFFFFF"></path>
            <path d="M15.2826,9.6625 C15.2826,12.7945 12.7466,15.3325 9.6136,15.3325 C6.4836,15.3325 3.9446,12.7945 3.9446,9.6625 C3.9446,6.5325 6.4836,3.9945 9.6136,3.9945 C12.7466,3.9945 15.2826,6.5325 15.2826,9.6625" id="Fill-79" fill="#DA0019"></path>
        </g>
    </g>
</svg>
