<svg xmlns="http://www.w3.org/2000/svg" xmlns:xlink="http://www.w3.org/1999/xlink" viewBox="0 0 50 50">
  <defs>
    <style>
      .cls-1 {
        fill: none;
      }

      .cls-2 {
        fill: #a10010;
      }

      .cls-3 {
        fill: #fff;
      }

      .cls-4 {
        clip-path: url(#clip-path);
      }
    </style>
    <clipPath id="clip-path">
      <rect class="cls-1" width="28.277" height="8.492"/>
    </clipPath>
  </defs>
  <g id="Group_259" data-name="Group 259" transform="translate(-208 -602)">
    <circle id="Ellipse_16" data-name="Ellipse 16" class="cls-2" cx="25" cy="25" r="25" transform="translate(208 602)"/>
    <path id="Union_6" data-name="Union 6" class="cls-3" d="M6.825,21.526A8,8,0,0,1,0,13.612V8A8,8,0,0,1,8,0H27.261a8,8,0,0,1,8,8v5.611a8,8,0,0,1-8,8H12.512L6.825,27.3Z" transform="translate(215.263 615.701)"/>
    <g id="Repeat_Grid_23" data-name="Repeat Grid 23" class="cls-4" transform="translate(220.04 623.386)">
      <g transform="translate(-225 -624)">
        <circle id="Ellipse_15" data-name="Ellipse 15" class="cls-2" cx="3" cy="3" r="3" transform="translate(225 624)"/>
      </g>
      <g transform="translate(-215 -624)">
        <circle id="Ellipse_15-2" data-name="Ellipse 15" class="cls-2" cx="3" cy="3" r="3" transform="translate(225 624)"/>
      </g>
      <g transform="translate(-205 -624)">
        <circle id="Ellipse_15-3" data-name="Ellipse 15" class="cls-2" cx="3" cy="3" r="3" transform="translate(225 624)"/>
      </g>
    </g>
  </g>
</svg>
