<svg id="Layer_1" data-name="Layer 1" xmlns="http://www.w3.org/2000/svg" viewBox="0 0 40 40"><defs><style>.cls-1{fill:#30bf39;}</style></defs><title>Untitled-4</title><path class="cls-1" d="M20,10.33A9.68,9.68,0,0,0,10.33,20,10.19,10.19,0,0,0,12,25.5L11,29l3.67-1a9.32,9.32,0,0,0,5.16,1.5,9.67,9.67,0,0,0,9.67-9.67A9.39,9.39,0,0,0,20,10.33ZM25.67,24a2.47,2.47,0,0,1-2,1.33,3.66,3.66,0,0,1-1.84-.16,12,12,0,0,1-1.66-.67,15.28,15.28,0,0,1-5-4.33,5.12,5.12,0,0,1-1.17-3A2.49,2.49,0,0,1,15.17,15a1.24,1.24,0,0,1,.83-.33h.5c.17,0,.33,0,.67.5.16.5.83,2,.83,2.16s.17.34,0,.5-.17.34-.33.5l-.5.5c-.17.17-.34.34-.17.67a6.72,6.72,0,0,0,1.67,2A9.36,9.36,0,0,0,21,23c.33.17.5.17.67,0a7.58,7.58,0,0,0,.83-1.17c.17-.33.33-.16.67-.16a11.31,11.31,0,0,1,2,1c.33.16.5.16.5.33C26,22.83,26,23.33,25.67,24ZM20,0A20,20,0,1,0,40,20,20.06,20.06,0,0,0,20,0Zm0,31.5a12.23,12.23,0,0,1-5.5-1.33l-6.17,1.5,1.67-6a11.73,11.73,0,0,1-1.5-5.84A11.53,11.53,0,0,1,20,8.33a11.33,11.33,0,0,1,8.17,3.34,11.61,11.61,0,0,1,3.33,8.16A11.35,11.35,0,0,1,20,31.5Z"/></svg>