<?xml version="1.0" encoding="utf-8"?>
<!-- Generator: Adobe Illustrator 22.1.0, SVG Export Plug-In . SVG Version: 6.00 Build 0)  -->
<svg version="1.1" id="Layer_1" xmlns="http://www.w3.org/2000/svg" xmlns:xlink="http://www.w3.org/1999/xlink" x="0px" y="0px"
	 viewBox="0 0 40 40" style="enable-background:new 0 0 40 40;" xml:space="preserve">
<style type="text/css">
	.st0{fill:none;}
	.st1{fill:#154A94;}
	.st2{fill:#FFFFFF;}
</style>
<g id="Call" transform="translate(-156.651 -300.875)">
	<g id="Group_247" transform="translate(164 306)">
		<rect id="Rectangle_203" x="-7.3" y="-5.1" class="st0" width="40" height="40"/>
		<g id="Group_246" transform="translate(1.651 0.875)">
			<g transform="matrix(1, 0, 0, 1, -9, -6)">
				<circle id="Ellipse_17-2" class="st1" cx="20" cy="20" r="20"/>
			</g>
		</g>
	</g>
	<g id="Group_249" transform="translate(175.227 315.71)">
		<g id="Group_248">
			<path id="Path_290" class="st2" d="M11.7,9.9c0,0.3-0.1,0.6-0.3,0.8l-2.7,2.7c-0.3,0.3-0.7,0.5-1.1,0.5H7.5c-0.1,0-0.2,0-0.3,0
				c-0.4,0-0.8-0.1-1.2-0.1c-0.7-0.1-1.4-0.4-2.1-0.6c-1-0.4-1.9-0.9-2.8-1.5c-1.2-0.8-2.3-1.8-3.3-2.8c-0.9-1-1.6-1.9-2.3-2.8
				C-5.1,5.4-5.6,4.6-6,3.8c-0.3-0.6-0.6-1.3-0.8-2c-0.2-0.5-0.3-1-0.4-1.5c-0.1-0.3-0.1-0.7-0.1-1c0-0.2,0-0.4,0-0.4
				c0-0.2,0.1-0.4,0.2-0.6C-7.1-1.9-7-2-6.8-2.2l2.7-2.7C-3.9-5-3.7-5.1-3.5-5.1S-3.1-5.1-3-5s0.3,0.2,0.3,0.4l2.2,4.1
				C-0.4-0.3-0.3,0-0.4,0.2c0,0.2-0.2,0.5-0.3,0.6l-1,1l-0.1,0.1c0,0,0,0.1,0,0.2c0.1,0.3,0.2,0.7,0.4,1C-1.2,3.5-1,3.9-0.7,4.3
				c0.4,0.6,0.9,1.1,1.4,1.6s1,1,1.6,1.4c0.4,0.3,0.8,0.5,1.2,0.8C3.7,8.2,4,8.3,4.2,8.4l0.2,0.1h0.1c0,0,0.1,0,0.1-0.1l1.2-1.2
				C6,7,6.3,6.9,6.6,6.9c0.2,0,0.4,0,0.5,0.1l0,0L11,9.3C11.5,9.4,11.6,9.6,11.7,9.9z"/>
		</g>
	</g>
</g>
</svg>
